<svg width="450" height="380" viewBox="0 0 450 380" fill="none" xmlns="http://www.w3.org/2000/svg">
  <rect width="450" height="380" rx="8" fill="#F9FAFB"/>
  
  <!-- Background elements -->
  <circle cx="225" cy="190" r="140" fill="#EEF2FF" fill-opacity="0.6"/>
  <circle cx="225" cy="190" r="100" fill="#E0E7FF" fill-opacity="0.6"/>
  
  <!-- Connection lines -->
  <path d="M175 140L225 190" stroke="#818CF8" stroke-width="2" stroke-linecap="round" stroke-dasharray="4 4"/>
  <path d="M225 190L275 140" stroke="#818CF8" stroke-width="2" stroke-linecap="round" stroke-dasharray="4 4"/>
  <path d="M225 190L275 240" stroke="#818CF8" stroke-width="2" stroke-linecap="round" stroke-dasharray="4 4"/>
  <path d="M225 190L175 240" stroke="#818CF8" stroke-width="2" stroke-linecap="round" stroke-dasharray="4 4"/>
  <path d="M175 140L275 140" stroke="#818CF8" stroke-width="2" stroke-linecap="round" stroke-dasharray="4 4"/>
  <path d="M275 140L275 240" stroke="#818CF8" stroke-width="2" stroke-linecap="round" stroke-dasharray="4 4"/>
  <path d="M275 240L175 240" stroke="#818CF8" stroke-width="2" stroke-linecap="round" stroke-dasharray="4 4"/>
  <path d="M175 240L175 140" stroke="#818CF8" stroke-width="2" stroke-linecap="round" stroke-dasharray="4 4"/>
  
  <!-- Person 1 (top left) -->
  <circle cx="175" cy="140" r="24" fill="#4F46E5"/>
  <circle cx="175" cy="130" r="8" fill="white"/>
  <path d="M159 150C159 141.716 165.716 135 174 135C182.284 135 189 141.716 189 150" fill="white"/>
  
  <!-- Person 2 (top right) -->
  <circle cx="275" cy="140" r="24" fill="#4F46E5"/>
  <circle cx="275" cy="130" r="8" fill="white"/>
  <path d="M259 150C259 141.716 265.716 135 274 135C282.284 135 289 141.716 289 150" fill="white"/>
  
  <!-- Person 3 (bottom right) -->
  <circle cx="275" cy="240" r="24" fill="#4F46E5"/>
  <circle cx="275" cy="230" r="8" fill="white"/>
  <path d="M259 250C259 241.716 265.716 235 274 235C282.284 235 289 241.716 289 250" fill="white"/>
  
  <!-- Person 4 (bottom left) -->
  <circle cx="175" cy="240" r="24" fill="#4F46E5"/>
  <circle cx="175" cy="230" r="8" fill="white"/>
  <path d="M159 250C159 241.716 165.716 235 174 235C182.284 235 189 241.716 189 250" fill="white"/>
  
  <!-- AI (center) -->
  <circle cx="225" cy="190" r="32" fill="#14B8A6"/>
  <path d="M225 178C225 178 222 181 222 186C222 191 225 194 225 194" stroke="white" stroke-width="2" stroke-linecap="round" stroke-linejoin="round"/>
  <path d="M225 178C225 178 228 181 228 186C228 191 225 194 225 194" stroke="white" stroke-width="2" stroke-linecap="round" stroke-linejoin="round"/>
  <circle cx="225" cy="174" r="4" stroke="white" stroke-width="2" stroke-linecap="round" stroke-linejoin="round"/>
  <circle cx="225" cy="198" r="4" stroke="white" stroke-width="2" stroke-linecap="round" stroke-linejoin="round"/>
  <path d="M225 182V190" stroke="white" stroke-width="2" stroke-linecap="round" stroke-linejoin="round"/>
  
  <!-- Documentation elements (left) -->
  <rect x="105" y="180" width="30" height="40" rx="4" fill="#818CF8"/>
  <rect x="110" y="187" width="20" height="2" rx="1" fill="white"/>
  <rect x="110" y="193" width="20" height="2" rx="1" fill="white"/>
  <rect x="110" y="199" width="15" height="2" rx="1" fill="white"/>
  <rect x="110" y="205" width="10" height="2" rx="1" fill="white"/>
  <rect x="110" y="211" width="18" height="2" rx="1" fill="white"/>
  
  <!-- Documentation elements (right) -->
  <rect x="315" y="180" width="30" height="40" rx="4" fill="#818CF8"/>
  <rect x="320" y="187" width="20" height="2" rx="1" fill="white"/>
  <rect x="320" y="193" width="20" height="2" rx="1" fill="white"/>
  <rect x="320" y="199" width="15" height="2" rx="1" fill="white"/>
  <rect x="320" y="205" width="10" height="2" rx="1" fill="white"/>
  <rect x="320" y="211" width="18" height="2" rx="1" fill="white"/>
  
  <!-- Document flow lines -->
  <path d="M135 190L165 160" stroke="#818CF8" stroke-width="2" stroke-linecap="round" stroke-dasharray="4 4"/>
  <path d="M135 210L165 230" stroke="#818CF8" stroke-width="2" stroke-linecap="round" stroke-dasharray="4 4"/>
  <path d="M315 190L285 160" stroke="#818CF8" stroke-width="2" stroke-linecap="round" stroke-dasharray="4 4"/>
  <path d="M315 210L285 230" stroke="#818CF8" stroke-width="2" stroke-linecap="round" stroke-dasharray="4 4"/>
  
  <!-- Decorative elements -->
  <circle cx="125" cy="130" r="8" fill="#14B8A6" fill-opacity="0.6"/>
  <circle cx="325" cy="130" r="8" fill="#14B8A6" fill-opacity="0.6"/>
  <circle cx="125" cy="250" r="8" fill="#14B8A6" fill-opacity="0.6"/>
  <circle cx="325" cy="250" r="8" fill="#14B8A6" fill-opacity="0.6"/>
</svg>